<svg width="69" height="110" viewBox="0 0 69 110" fill="none" xmlns="http://www.w3.org/2000/svg">
<path fill-rule="evenodd" clip-rule="evenodd" d="M30.747 0.0633852C30.3259 0.138413 29.1546 0.342978 28.144 0.518451C20.4777 1.84751 12.0195 6.88998 7.06092 13.0876C2.2858 19.0555 0.00709732 25.8144 5.39088e-05 34.0316C-0.00300844 37.5414 0.123161 38.7908 0.695821 40.9219C1.76979 44.9174 4.94361 52.6323 8.25493 59.296C12.2277 67.2912 26.8008 90.9203 29.4538 93.6685C31.6464 95.9395 34.8165 96.3355 37.6263 94.6888C39.1914 93.7717 39.3485 93.5481 47.4423 80.7325C57.6038 64.6423 62.8818 54.5393 66.2905 44.6543C68.4047 38.5225 68.7774 35.0483 67.935 29.3242C66.786 21.5179 63.5809 15.2508 57.9747 9.84607C51.4641 3.56978 43.9145 0.299799 35.3405 0.0419488C33.2352 -0.0214419 31.1681 -0.0119487 30.747 0.0633852ZM40.0927 5.05808C43.7476 5.81234 47.1067 7.24583 50.4333 9.47093C58.6306 14.9541 63.1899 22.9676 63.7227 32.829C63.9481 36.9954 63.4958 39.3163 61.3102 45.2092C58.1204 53.8092 51.7468 65.6648 42.624 79.9669C35.2217 91.572 35.6636 90.9773 34.3587 91.0857C32.8968 91.2069 32.8073 91.1028 27.8969 83.5495C15.2297 64.0662 7.4088 48.9646 4.94882 39.2398C4.42393 37.1656 4.35595 36.1844 4.50263 32.8088C4.89155 23.8496 8.46562 16.6962 15.2245 11.3485C19.2126 8.19301 24.9028 5.54867 29.266 4.8232C32.1701 4.34027 37.1378 4.44806 40.0927 5.05808ZM31.9719 17.2187C29.9394 17.5837 28.2662 18.1435 26.3066 19.1143C23.5168 20.4966 20.1941 23.8101 18.8461 26.5543C14.749 34.8943 17.9727 45.0233 26.08 49.2833C28.8508 50.7395 31.2284 51.3348 34.2564 51.3302C38.9737 51.3232 42.8277 49.7023 46.2039 46.3055C49.7088 42.7789 51.2648 39.0995 51.2648 34.3378C51.2648 29.7801 49.7088 25.8882 46.587 22.6375C44.3399 20.297 42.4433 19.0454 39.6992 18.0908C37.6768 17.3874 33.5971 16.9271 31.9719 17.2187ZM37.7625 22.2094C42.515 23.6885 45.7816 27.3973 46.6688 32.3213C47.8659 38.9644 43.0047 45.5464 35.9888 46.782C34.5143 47.0417 33.6568 47.0105 31.7854 46.6289C27.6222 45.78 24.5598 43.3494 22.6654 39.3907C21.7847 37.5496 21.7137 37.1586 21.7192 34.1847C21.7247 31.349 21.8224 30.761 22.5451 29.2075C23.4966 27.1615 25.9605 24.4296 27.8555 23.3192C30.7176 21.6419 34.5575 21.2117 37.7625 22.2094ZM52.0166 80.5656C51.1193 81.4625 51.047 82.6584 51.842 83.4534C52.1596 83.7709 53.2277 84.3314 54.2153 84.6991C58.2858 86.2138 62.085 88.9436 63.2208 91.1696C64.4047 93.4905 63.8369 95.7708 61.512 98.0302C58.3679 101.086 52.9083 103.332 44.9869 104.83C41.1777 105.549 31.0866 105.705 26.5911 105.113C15.8278 103.696 7.674 99.8376 5.75911 95.2548C5.14817 93.7928 5.21984 93.0159 6.13425 91.1806C7.16137 89.1196 9.18099 87.4994 13.0362 85.6436C14.6644 84.8599 16.2146 84.0377 16.4813 83.8163C17.1704 83.2445 17.0972 81.4757 16.3539 80.7325C15.3976 79.7761 14.2761 79.9886 10.6087 81.8218C6.30819 83.9709 3.36282 86.5663 1.93699 89.4623C1.05901 91.2455 0.985518 91.6225 1.09025 93.8063C1.1711 95.4936 1.41057 96.6175 1.9033 97.625C4.66463 103.268 13.0297 107.593 24.738 109.431C30.0166 110.259 40.3692 110.17 45.563 109.251C57.014 107.224 64.7544 103.052 67.5111 97.4223C68.6059 95.1865 68.5692 91.9658 67.4208 89.5092C65.859 86.1669 61.6921 82.8489 56.4196 80.749C53.5799 79.6178 52.9889 79.5933 52.0166 80.5656Z" fill="#A50700"/>
</svg>
