<svg width="112" height="112" viewBox="0 0 112 112" fill="none" xmlns="http://www.w3.org/2000/svg">
<mask id="path-1-outside-1_112_13" maskUnits="userSpaceOnUse" x="0" y="0" width="112" height="112" fill="black">
<rect fill="white" width="112" height="112"/>
<path fill-rule="evenodd" clip-rule="evenodd" d="M3.3926 1.24048C2.98821 1.40702 2.32647 1.91104 1.92208 2.36065C1.21182 3.15032 1.18682 3.69551 1.18682 18.4261V33.6742L2.3875 34.747C3.28819 35.5517 3.95397 35.8197 5.05282 35.8197H6.51745V64.1272V92.4347H3.95103C0.804853 92.4347 0.899334 92.2108 1.06624 99.2829C1.16145 103.312 1.32799 104.666 1.85958 105.735C2.75329 107.531 4.63262 109.426 6.3829 110.295C7.76261 110.979 9.22357 111 56.1475 111C102.124 111 104.557 110.967 105.833 110.332C107.549 109.478 109.586 107.441 110.44 105.725C110.966 104.668 111.134 103.297 111.229 99.2829C111.394 92.284 111.478 92.4928 108.44 92.3597L105.961 92.2509V64.1272V36.0035L107.542 35.7925C108.574 35.6547 109.468 35.2367 110.116 34.5893L111.108 33.5974V18.3573V3.11723L110.089 2.09816L109.07 1.07873L56.5985 1.00814C27.7396 0.969172 3.79699 1.07395 3.3926 1.24048ZM108.141 4.04586C108.645 4.55062 108.719 6.3623 108.719 18.3573C108.719 30.3523 108.645 32.164 108.141 32.6688C107.621 33.1882 102.399 33.2463 56.1475 33.2463C9.89597 33.2463 4.67379 33.1882 4.15396 32.6688C3.64957 32.164 3.57641 30.3523 3.57641 18.3573C3.57641 6.3623 3.64957 4.55062 4.15396 4.04586C4.67379 3.5264 9.89597 3.46832 56.1475 3.46832C102.399 3.46832 107.621 3.5264 108.141 4.04586ZM31.7008 6.98433C28.3267 8.75667 27.858 10.1305 27.8481 18.2772C27.8396 25.2489 28.0973 26.5948 29.7877 28.405C31.8008 30.5615 30.8578 30.4788 54.8608 30.6067C78.5743 30.7328 79.8735 30.6516 81.9381 28.9145C84.1248 27.0746 84.4388 25.7489 84.4388 18.3573C84.4388 10.7886 84.1086 9.51031 81.6746 7.65342L80.2849 6.59317L56.5438 6.49906C35.5312 6.41597 32.6765 6.47185 31.7008 6.98433ZM79.6857 9.6092C81.4555 10.8286 81.4904 10.9981 81.4941 18.3573C81.4977 25.868 81.3948 26.3132 79.4243 27.3212C78.2913 27.9006 34.0037 27.9006 32.8706 27.3212C30.9045 26.3158 30.7979 25.8599 30.7891 18.4125L30.781 11.4826L32.0309 10.2327L33.2809 8.98276H56.0287C76.8597 8.98276 78.8534 9.0357 79.6857 9.6092ZM39.0927 12.1201C38.334 12.8789 38.3483 13.1421 39.1909 13.9042C40.1828 14.802 45.7674 14.6196 46.3645 13.67C46.6589 13.2021 46.6589 12.8513 46.3645 12.3833C45.7825 11.4576 39.9659 11.247 39.0927 12.1201ZM60.6325 11.9973C60.3351 12.2947 60.1914 13.9785 60.1914 17.1625C60.1914 24.3725 60.8766 25.1585 67.1635 25.1585C70.8633 25.1585 70.8633 25.1585 72.2368 23.9004L73.6099 22.6424L73.7363 17.7114C73.8448 13.4899 73.7749 12.6929 73.2507 12.1686C72.7312 11.6492 71.7611 11.5562 66.8561 11.5562C62.849 11.5562 60.9384 11.6915 60.6325 11.9973ZM70.8526 18.1606C70.8526 22.5005 70.7776 22.5851 66.9146 22.5851C63.0677 22.5851 62.7648 22.2479 62.7648 17.9687V14.4972H66.8087H70.8526V18.1606ZM38.9031 17.7419C38.6391 18.2353 38.6619 18.6202 38.981 19.0566C39.3589 19.5738 39.9979 19.6565 42.9187 19.5672L46.4053 19.4602V18.3573V17.2544L42.8407 17.1493C39.6552 17.0555 39.2365 17.1188 38.9031 17.7419ZM38.8895 23.2817C38.1751 24.6166 39.2696 25.1592 42.6632 25.153C46.0645 25.1463 46.706 24.8963 46.5292 23.6464C46.4097 22.799 46.2832 22.7652 42.8407 22.6637C39.6133 22.5689 39.2398 22.6273 38.8895 23.2817ZM38.8689 36.68C38.8689 37.1531 39.371 38.5457 39.985 39.7743C41.8437 43.4936 45.259 45.9913 49.0169 46.3792C50.3889 46.5207 51.0348 46.7611 51.1539 47.1747C51.2477 47.5008 51.5161 48.5121 51.7499 49.422C52.3895 51.909 52.5373 51.9954 56.1475 51.9954C59.7576 51.9954 59.9054 51.909 60.545 49.422C60.7789 48.5121 61.0472 47.5008 61.141 47.1747C61.2601 46.7611 61.906 46.5207 63.278 46.3792C67.058 45.9891 70.6402 43.3525 72.3801 39.6798C72.9551 38.4667 73.4257 37.102 73.4257 36.6469L73.4261 35.8197H88.3151H103.204V61.37V86.9203H92.9553C84.4447 86.9203 82.6319 87.0107 82.2639 87.4541C81.7576 88.0639 82.0815 89.4841 82.7333 89.5128C82.9727 89.5234 87.6761 89.5153 93.1861 89.4948L103.204 89.4573V90.9462V92.4347H86.2534H69.3023L69.5556 91.4259C69.9832 89.7216 70.4034 89.4937 73.1154 89.4937C77.87 89.4937 79.3033 88.2235 81.2952 82.2455C82.7833 77.7799 82.8499 77.1608 82.0477 75.2414C80.9117 72.5224 78.303 70.7681 75.373 70.7526L73.8271 70.7445L73.7187 68.263L73.6099 65.7815H56.3313H39.0527L38.9325 67.8035C38.6523 72.5103 40.1938 82.323 42.1941 88.5683C42.7915 90.4333 43.2804 92.0663 43.2804 92.1968C43.2804 92.3277 35.5878 92.4347 26.1856 92.4347H9.09086V90.9568V89.479L23.806 89.5021C31.899 89.5146 38.6817 89.4253 38.8788 89.3036C39.3744 88.9974 39.3269 87.893 38.7953 87.3614C38.467 87.0331 34.6124 86.9203 23.7225 86.9203H9.09086V61.37V35.8197H23.9799H38.8689V36.68ZM70.6835 36.8307C69.9902 39.6475 67.4866 42.3871 64.6956 43.383C62.6236 44.1226 49.7911 44.0969 47.6714 43.3488C44.7274 42.3102 42.3238 39.7247 41.6114 36.8307L41.3625 35.8197H56.1475H70.9324L70.6835 36.8307ZM58.3532 47.0085C58.3532 47.2986 58.1918 47.9603 57.9948 48.4791C57.6911 49.2772 57.4073 49.422 56.1475 49.422C54.8876 49.422 54.6038 49.2772 54.3001 48.4791C53.6079 46.6586 53.7722 46.481 56.1475 46.481C57.8187 46.481 58.3532 46.6089 58.3532 47.0085ZM71.2199 68.6307C71.2199 68.8836 71.0482 70.91 70.8383 73.1341C70.335 78.4736 69.2656 83.6381 67.6609 88.4827L66.3518 92.4347H56.4574H46.563L45.8013 90.6885C44.0296 86.6269 42.4577 78.9261 41.6367 70.285L41.436 68.1711H56.328C67.9969 68.1711 71.2203 68.2708 71.2199 68.6307ZM78.6012 74.7602C80.0191 76.1781 80.0052 77.6582 78.5324 82.0782C77.5792 84.9395 77.1976 85.6266 76.2347 86.2137C75.0462 86.9383 71.2203 87.2327 71.2203 86.5993C71.2203 86.4225 71.5438 84.9829 71.9394 83.3998C72.3349 81.8168 72.8599 78.9835 73.1058 77.1038L73.5533 73.6856H75.5399C77.2454 73.6856 77.6784 73.8378 78.6012 74.7602ZM108.716 98.5925C108.715 100.564 108.532 102.835 108.309 103.639C107.788 105.513 105.621 107.68 103.747 108.201C101.683 108.773 10.6117 108.773 8.54787 108.201C6.67369 107.68 4.50689 105.513 3.98632 103.639C3.76317 102.835 3.57972 100.564 3.57862 98.5925L3.57641 95.0081H56.1475H108.719L108.716 98.5925Z"/>
</mask>
<path fill-rule="evenodd" clip-rule="evenodd" d="M3.3926 1.24048C2.98821 1.40702 2.32647 1.91104 1.92208 2.36065C1.21182 3.15032 1.18682 3.69551 1.18682 18.4261V33.6742L2.3875 34.747C3.28819 35.5517 3.95397 35.8197 5.05282 35.8197H6.51745V64.1272V92.4347H3.95103C0.804853 92.4347 0.899334 92.2108 1.06624 99.2829C1.16145 103.312 1.32799 104.666 1.85958 105.735C2.75329 107.531 4.63262 109.426 6.3829 110.295C7.76261 110.979 9.22357 111 56.1475 111C102.124 111 104.557 110.967 105.833 110.332C107.549 109.478 109.586 107.441 110.44 105.725C110.966 104.668 111.134 103.297 111.229 99.2829C111.394 92.284 111.478 92.4928 108.44 92.3597L105.961 92.2509V64.1272V36.0035L107.542 35.7925C108.574 35.6547 109.468 35.2367 110.116 34.5893L111.108 33.5974V18.3573V3.11723L110.089 2.09816L109.07 1.07873L56.5985 1.00814C27.7396 0.969172 3.79699 1.07395 3.3926 1.24048ZM108.141 4.04586C108.645 4.55062 108.719 6.3623 108.719 18.3573C108.719 30.3523 108.645 32.164 108.141 32.6688C107.621 33.1882 102.399 33.2463 56.1475 33.2463C9.89597 33.2463 4.67379 33.1882 4.15396 32.6688C3.64957 32.164 3.57641 30.3523 3.57641 18.3573C3.57641 6.3623 3.64957 4.55062 4.15396 4.04586C4.67379 3.5264 9.89597 3.46832 56.1475 3.46832C102.399 3.46832 107.621 3.5264 108.141 4.04586ZM31.7008 6.98433C28.3267 8.75667 27.858 10.1305 27.8481 18.2772C27.8396 25.2489 28.0973 26.5948 29.7877 28.405C31.8008 30.5615 30.8578 30.4788 54.8608 30.6067C78.5743 30.7328 79.8735 30.6516 81.9381 28.9145C84.1248 27.0746 84.4388 25.7489 84.4388 18.3573C84.4388 10.7886 84.1086 9.51031 81.6746 7.65342L80.2849 6.59317L56.5438 6.49906C35.5312 6.41597 32.6765 6.47185 31.7008 6.98433ZM79.6857 9.6092C81.4555 10.8286 81.4904 10.9981 81.4941 18.3573C81.4977 25.868 81.3948 26.3132 79.4243 27.3212C78.2913 27.9006 34.0037 27.9006 32.8706 27.3212C30.9045 26.3158 30.7979 25.8599 30.7891 18.4125L30.781 11.4826L32.0309 10.2327L33.2809 8.98276H56.0287C76.8597 8.98276 78.8534 9.0357 79.6857 9.6092ZM39.0927 12.1201C38.334 12.8789 38.3483 13.1421 39.1909 13.9042C40.1828 14.802 45.7674 14.6196 46.3645 13.67C46.6589 13.2021 46.6589 12.8513 46.3645 12.3833C45.7825 11.4576 39.9659 11.247 39.0927 12.1201ZM60.6325 11.9973C60.3351 12.2947 60.1914 13.9785 60.1914 17.1625C60.1914 24.3725 60.8766 25.1585 67.1635 25.1585C70.8633 25.1585 70.8633 25.1585 72.2368 23.9004L73.6099 22.6424L73.7363 17.7114C73.8448 13.4899 73.7749 12.6929 73.2507 12.1686C72.7312 11.6492 71.7611 11.5562 66.8561 11.5562C62.849 11.5562 60.9384 11.6915 60.6325 11.9973ZM70.8526 18.1606C70.8526 22.5005 70.7776 22.5851 66.9146 22.5851C63.0677 22.5851 62.7648 22.2479 62.7648 17.9687V14.4972H66.8087H70.8526V18.1606ZM38.9031 17.7419C38.6391 18.2353 38.6619 18.6202 38.981 19.0566C39.3589 19.5738 39.9979 19.6565 42.9187 19.5672L46.4053 19.4602V18.3573V17.2544L42.8407 17.1493C39.6552 17.0555 39.2365 17.1188 38.9031 17.7419ZM38.8895 23.2817C38.1751 24.6166 39.2696 25.1592 42.6632 25.153C46.0645 25.1463 46.706 24.8963 46.5292 23.6464C46.4097 22.799 46.2832 22.7652 42.8407 22.6637C39.6133 22.5689 39.2398 22.6273 38.8895 23.2817ZM38.8689 36.68C38.8689 37.1531 39.371 38.5457 39.985 39.7743C41.8437 43.4936 45.259 45.9913 49.0169 46.3792C50.3889 46.5207 51.0348 46.7611 51.1539 47.1747C51.2477 47.5008 51.5161 48.5121 51.7499 49.422C52.3895 51.909 52.5373 51.9954 56.1475 51.9954C59.7576 51.9954 59.9054 51.909 60.545 49.422C60.7789 48.5121 61.0472 47.5008 61.141 47.1747C61.2601 46.7611 61.906 46.5207 63.278 46.3792C67.058 45.9891 70.6402 43.3525 72.3801 39.6798C72.9551 38.4667 73.4257 37.102 73.4257 36.6469L73.4261 35.8197H88.3151H103.204V61.37V86.9203H92.9553C84.4447 86.9203 82.6319 87.0107 82.2639 87.4541C81.7576 88.0639 82.0815 89.4841 82.7333 89.5128C82.9727 89.5234 87.6761 89.5153 93.1861 89.4948L103.204 89.4573V90.9462V92.4347H86.2534H69.3023L69.5556 91.4259C69.9832 89.7216 70.4034 89.4937 73.1154 89.4937C77.87 89.4937 79.3033 88.2235 81.2952 82.2455C82.7833 77.7799 82.8499 77.1608 82.0477 75.2414C80.9117 72.5224 78.303 70.7681 75.373 70.7526L73.8271 70.7445L73.7187 68.263L73.6099 65.7815H56.3313H39.0527L38.9325 67.8035C38.6523 72.5103 40.1938 82.323 42.1941 88.5683C42.7915 90.4333 43.2804 92.0663 43.2804 92.1968C43.2804 92.3277 35.5878 92.4347 26.1856 92.4347H9.09086V90.9568V89.479L23.806 89.5021C31.899 89.5146 38.6817 89.4253 38.8788 89.3036C39.3744 88.9974 39.3269 87.893 38.7953 87.3614C38.467 87.0331 34.6124 86.9203 23.7225 86.9203H9.09086V61.37V35.8197H23.9799H38.8689V36.68ZM70.6835 36.8307C69.9902 39.6475 67.4866 42.3871 64.6956 43.383C62.6236 44.1226 49.7911 44.0969 47.6714 43.3488C44.7274 42.3102 42.3238 39.7247 41.6114 36.8307L41.3625 35.8197H56.1475H70.9324L70.6835 36.8307ZM58.3532 47.0085C58.3532 47.2986 58.1918 47.9603 57.9948 48.4791C57.6911 49.2772 57.4073 49.422 56.1475 49.422C54.8876 49.422 54.6038 49.2772 54.3001 48.4791C53.6079 46.6586 53.7722 46.481 56.1475 46.481C57.8187 46.481 58.3532 46.6089 58.3532 47.0085ZM71.2199 68.6307C71.2199 68.8836 71.0482 70.91 70.8383 73.1341C70.335 78.4736 69.2656 83.6381 67.6609 88.4827L66.3518 92.4347H56.4574H46.563L45.8013 90.6885C44.0296 86.6269 42.4577 78.9261 41.6367 70.285L41.436 68.1711H56.328C67.9969 68.1711 71.2203 68.2708 71.2199 68.6307ZM78.6012 74.7602C80.0191 76.1781 80.0052 77.6582 78.5324 82.0782C77.5792 84.9395 77.1976 85.6266 76.2347 86.2137C75.0462 86.9383 71.2203 87.2327 71.2203 86.5993C71.2203 86.4225 71.5438 84.9829 71.9394 83.3998C72.3349 81.8168 72.8599 78.9835 73.1058 77.1038L73.5533 73.6856H75.5399C77.2454 73.6856 77.6784 73.8378 78.6012 74.7602ZM108.716 98.5925C108.715 100.564 108.532 102.835 108.309 103.639C107.788 105.513 105.621 107.68 103.747 108.201C101.683 108.773 10.6117 108.773 8.54787 108.201C6.67369 107.68 4.50689 105.513 3.98632 103.639C3.76317 102.835 3.57972 100.564 3.57862 98.5925L3.57641 95.0081H56.1475H108.719L108.716 98.5925Z" fill="#A50700"/>
<path fill-rule="evenodd" clip-rule="evenodd" d="M3.3926 1.24048C2.98821 1.40702 2.32647 1.91104 1.92208 2.36065C1.21182 3.15032 1.18682 3.69551 1.18682 18.4261V33.6742L2.3875 34.747C3.28819 35.5517 3.95397 35.8197 5.05282 35.8197H6.51745V64.1272V92.4347H3.95103C0.804853 92.4347 0.899334 92.2108 1.06624 99.2829C1.16145 103.312 1.32799 104.666 1.85958 105.735C2.75329 107.531 4.63262 109.426 6.3829 110.295C7.76261 110.979 9.22357 111 56.1475 111C102.124 111 104.557 110.967 105.833 110.332C107.549 109.478 109.586 107.441 110.44 105.725C110.966 104.668 111.134 103.297 111.229 99.2829C111.394 92.284 111.478 92.4928 108.44 92.3597L105.961 92.2509V64.1272V36.0035L107.542 35.7925C108.574 35.6547 109.468 35.2367 110.116 34.5893L111.108 33.5974V18.3573V3.11723L110.089 2.09816L109.07 1.07873L56.5985 1.00814C27.7396 0.969172 3.79699 1.07395 3.3926 1.24048ZM108.141 4.04586C108.645 4.55062 108.719 6.3623 108.719 18.3573C108.719 30.3523 108.645 32.164 108.141 32.6688C107.621 33.1882 102.399 33.2463 56.1475 33.2463C9.89597 33.2463 4.67379 33.1882 4.15396 32.6688C3.64957 32.164 3.57641 30.3523 3.57641 18.3573C3.57641 6.3623 3.64957 4.55062 4.15396 4.04586C4.67379 3.5264 9.89597 3.46832 56.1475 3.46832C102.399 3.46832 107.621 3.5264 108.141 4.04586ZM31.7008 6.98433C28.3267 8.75667 27.858 10.1305 27.8481 18.2772C27.8396 25.2489 28.0973 26.5948 29.7877 28.405C31.8008 30.5615 30.8578 30.4788 54.8608 30.6067C78.5743 30.7328 79.8735 30.6516 81.9381 28.9145C84.1248 27.0746 84.4388 25.7489 84.4388 18.3573C84.4388 10.7886 84.1086 9.51031 81.6746 7.65342L80.2849 6.59317L56.5438 6.49906C35.5312 6.41597 32.6765 6.47185 31.7008 6.98433ZM79.6857 9.6092C81.4555 10.8286 81.4904 10.9981 81.4941 18.3573C81.4977 25.868 81.3948 26.3132 79.4243 27.3212C78.2913 27.9006 34.0037 27.9006 32.8706 27.3212C30.9045 26.3158 30.7979 25.8599 30.7891 18.4125L30.781 11.4826L32.0309 10.2327L33.2809 8.98276H56.0287C76.8597 8.98276 78.8534 9.0357 79.6857 9.6092ZM39.0927 12.1201C38.334 12.8789 38.3483 13.1421 39.1909 13.9042C40.1828 14.802 45.7674 14.6196 46.3645 13.67C46.6589 13.2021 46.6589 12.8513 46.3645 12.3833C45.7825 11.4576 39.9659 11.247 39.0927 12.1201ZM60.6325 11.9973C60.3351 12.2947 60.1914 13.9785 60.1914 17.1625C60.1914 24.3725 60.8766 25.1585 67.1635 25.1585C70.8633 25.1585 70.8633 25.1585 72.2368 23.9004L73.6099 22.6424L73.7363 17.7114C73.8448 13.4899 73.7749 12.6929 73.2507 12.1686C72.7312 11.6492 71.7611 11.5562 66.8561 11.5562C62.849 11.5562 60.9384 11.6915 60.6325 11.9973ZM70.8526 18.1606C70.8526 22.5005 70.7776 22.5851 66.9146 22.5851C63.0677 22.5851 62.7648 22.2479 62.7648 17.9687V14.4972H66.8087H70.8526V18.1606ZM38.9031 17.7419C38.6391 18.2353 38.6619 18.6202 38.981 19.0566C39.3589 19.5738 39.9979 19.6565 42.9187 19.5672L46.4053 19.4602V18.3573V17.2544L42.8407 17.1493C39.6552 17.0555 39.2365 17.1188 38.9031 17.7419ZM38.8895 23.2817C38.1751 24.6166 39.2696 25.1592 42.6632 25.153C46.0645 25.1463 46.706 24.8963 46.5292 23.6464C46.4097 22.799 46.2832 22.7652 42.8407 22.6637C39.6133 22.5689 39.2398 22.6273 38.8895 23.2817ZM38.8689 36.68C38.8689 37.1531 39.371 38.5457 39.985 39.7743C41.8437 43.4936 45.259 45.9913 49.0169 46.3792C50.3889 46.5207 51.0348 46.7611 51.1539 47.1747C51.2477 47.5008 51.5161 48.5121 51.7499 49.422C52.3895 51.909 52.5373 51.9954 56.1475 51.9954C59.7576 51.9954 59.9054 51.909 60.545 49.422C60.7789 48.5121 61.0472 47.5008 61.141 47.1747C61.2601 46.7611 61.906 46.5207 63.278 46.3792C67.058 45.9891 70.6402 43.3525 72.3801 39.6798C72.9551 38.4667 73.4257 37.102 73.4257 36.6469L73.4261 35.8197H88.3151H103.204V61.37V86.9203H92.9553C84.4447 86.9203 82.6319 87.0107 82.2639 87.4541C81.7576 88.0639 82.0815 89.4841 82.7333 89.5128C82.9727 89.5234 87.6761 89.5153 93.1861 89.4948L103.204 89.4573V90.9462V92.4347H86.2534H69.3023L69.5556 91.4259C69.9832 89.7216 70.4034 89.4937 73.1154 89.4937C77.87 89.4937 79.3033 88.2235 81.2952 82.2455C82.7833 77.7799 82.8499 77.1608 82.0477 75.2414C80.9117 72.5224 78.303 70.7681 75.373 70.7526L73.8271 70.7445L73.7187 68.263L73.6099 65.7815H56.3313H39.0527L38.9325 67.8035C38.6523 72.5103 40.1938 82.323 42.1941 88.5683C42.7915 90.4333 43.2804 92.0663 43.2804 92.1968C43.2804 92.3277 35.5878 92.4347 26.1856 92.4347H9.09086V90.9568V89.479L23.806 89.5021C31.899 89.5146 38.6817 89.4253 38.8788 89.3036C39.3744 88.9974 39.3269 87.893 38.7953 87.3614C38.467 87.0331 34.6124 86.9203 23.7225 86.9203H9.09086V61.37V35.8197H23.9799H38.8689V36.68ZM70.6835 36.8307C69.9902 39.6475 67.4866 42.3871 64.6956 43.383C62.6236 44.1226 49.7911 44.0969 47.6714 43.3488C44.7274 42.3102 42.3238 39.7247 41.6114 36.8307L41.3625 35.8197H56.1475H70.9324L70.6835 36.8307ZM58.3532 47.0085C58.3532 47.2986 58.1918 47.9603 57.9948 48.4791C57.6911 49.2772 57.4073 49.422 56.1475 49.422C54.8876 49.422 54.6038 49.2772 54.3001 48.4791C53.6079 46.6586 53.7722 46.481 56.1475 46.481C57.8187 46.481 58.3532 46.6089 58.3532 47.0085ZM71.2199 68.6307C71.2199 68.8836 71.0482 70.91 70.8383 73.1341C70.335 78.4736 69.2656 83.6381 67.6609 88.4827L66.3518 92.4347H56.4574H46.563L45.8013 90.6885C44.0296 86.6269 42.4577 78.9261 41.6367 70.285L41.436 68.1711H56.328C67.9969 68.1711 71.2203 68.2708 71.2199 68.6307ZM78.6012 74.7602C80.0191 76.1781 80.0052 77.6582 78.5324 82.0782C77.5792 84.9395 77.1976 85.6266 76.2347 86.2137C75.0462 86.9383 71.2203 87.2327 71.2203 86.5993C71.2203 86.4225 71.5438 84.9829 71.9394 83.3998C72.3349 81.8168 72.8599 78.9835 73.1058 77.1038L73.5533 73.6856H75.5399C77.2454 73.6856 77.6784 73.8378 78.6012 74.7602ZM108.716 98.5925C108.715 100.564 108.532 102.835 108.309 103.639C107.788 105.513 105.621 107.68 103.747 108.201C101.683 108.773 10.6117 108.773 8.54787 108.201C6.67369 107.68 4.50689 105.513 3.98632 103.639C3.76317 102.835 3.57972 100.564 3.57862 98.5925L3.57641 95.0081H56.1475H108.719L108.716 98.5925Z" stroke="#A50700" mask="url(#path-1-outside-1_112_13)"/>
</svg>
