<svg width="112" height="110" viewBox="0 0 112 110" fill="none" xmlns="http://www.w3.org/2000/svg">
<path fill-rule="evenodd" clip-rule="evenodd" d="M18.113 1.46854C17.6145 2.27692 19.397 5.18167 22.0754 7.92476C27.726 13.7114 28.1854 17.2278 23.8282 21.3222C19.3094 25.5662 15.0223 24.995 9.2788 19.3862C4.30729 14.5319 4.29246 14.5279 2.69862 17.5081C-2.18532 26.6333 9.65334 41.7661 21.6766 41.7661C24.8212 41.7661 27.5521 43.2239 31.881 47.2145C35.132 50.2109 38.3413 52.3221 39.0122 51.9071C39.6832 51.4922 40.6708 51.8614 41.2056 52.7263C42.4883 54.8025 38.0907 57.9336 33.8912 57.9336C31.4741 57.9336 26.4258 62.0267 15.2864 73.0166C1.31901 86.798 0 88.5253 0 93.0441C0 101.699 9.59003 110.198 17.4165 108.479C22.8272 107.29 49.8498 79.6264 49.8498 75.276C49.8498 73.4773 50.8145 70.6291 51.992 68.9477C53.6883 66.5266 54.529 66.2167 56.0272 67.4603C57.493 68.6769 58.6975 68.522 61.3679 66.7718C65.9231 63.7876 66.8203 61.054 64.1985 58.1573C62.1991 55.9477 62.9873 54.8564 75.8472 42.0396C84.2152 33.7012 90.7119 28.2932 92.3623 28.2932C94.0653 28.2932 97.0024 25.7212 100.218 21.4125L105.356 14.5332L100.233 9.2869C97.416 6.40234 94.5746 4.04188 93.9211 4.04188C90.8278 4.04188 80.5951 13 79.9389 16.2834C79.5078 18.4391 73.9691 25.088 65.9392 33.0868C53.1264 45.8511 52.5606 46.2405 50.0735 43.9891C47.6133 41.7621 47.3102 41.8105 43.492 45.0225L39.4905 48.3894L35.2398 44.0026C32.9009 41.5909 30.9877 38.5205 30.9877 37.1786C30.9877 35.3718 30.3788 35.0013 28.63 35.7491C20.5462 39.2062 12.5702 36.6854 8.02985 29.2376C4.07824 22.7585 4.67375 20.367 9.16832 24.673C14.6558 29.9314 21.0811 29.6297 26.6818 23.8498C32.1087 18.2504 32.4779 12.1472 27.6802 7.34947C24.7215 4.38946 24.6393 4.04188 26.9041 4.04188C34.0407 4.04188 41.7957 16.41 39.1025 23.4968C37.5504 27.5804 38.2806 29.8587 40.8297 28.8819C41.7486 28.5289 45.1895 30.9797 48.4769 34.329C51.763 37.6784 54.9332 40.4188 55.5193 40.4188C58.2691 40.4188 55.9868 36.358 49.8256 30.2898C45.9292 26.4514 43.3653 22.8433 43.7749 21.7749C45.2731 17.8705 41.6758 9.66279 36.3608 4.86104C31.8837 0.816462 29.9759 0 25.0004 0C21.7116 0 18.6129 0.661516 18.113 1.46854ZM96.4864 19.4522C94.4735 22.0915 91.8571 24.2513 90.6728 24.2513C89.4872 24.2513 81.9639 30.7102 73.9516 38.6053C61.2547 51.1176 59.1084 52.7303 57.2303 51.1729C55.3266 49.5925 56.7305 47.7238 69.3034 35.1118C77.6485 26.7411 83.547 19.7338 83.5672 18.1669C83.5861 16.6526 85.7768 13.9243 88.6195 11.8737L93.6369 8.25353L96.8919 11.4533L100.146 14.6545L96.4864 19.4522ZM54.1827 53.5037C60.5581 59.7847 62.2557 63.3228 58.8929 63.3228C56.2603 63.3228 44.012 50.3187 45.0548 48.6319C46.4911 46.3078 47.3304 46.7551 54.1827 53.5037ZM67.3647 52.2413C67.3647 52.8153 71.8902 57.7814 77.4222 63.2757C84.7474 70.5524 87.1079 73.7131 86.1136 74.9109C84.129 77.3023 86.5366 78.2522 91.1942 76.917C96.1159 75.505 102.479 77.9059 105.59 82.3465C109.113 87.3773 108.364 89.5748 104.233 86.3251C99.4087 82.5298 94.5355 82.8128 90.0059 87.1524C85.2324 91.7252 84.8633 98.7485 89.1558 103.319C94.3253 108.82 88.9281 106.76 83.2196 101.052C77.7078 95.5394 77.173 92.815 80.2003 85.673C81.1124 83.5241 80.8322 83.2196 78.5027 83.8286C76.405 84.3769 73.9367 82.7601 68.5529 77.309C61.7316 70.4001 57.9336 68.332 57.9336 71.5237C57.9336 72.328 61.4918 76.7243 65.8408 81.2916C71.5318 87.2695 74.0041 91.0151 74.6629 94.6676C76.4171 104.391 88.7395 112.833 95.7225 109.096C98.634 107.538 98.6313 107.525 94.4547 103.216C89.4656 98.0695 89.1638 94.4709 93.3863 90.5032C97.4834 86.6539 98.7148 86.7914 104.328 91.7198C106.925 94.0008 109.675 95.4801 110.438 95.0085C111.202 94.5369 111.825 91.6915 111.825 88.6829C111.825 84.1278 110.952 82.3425 106.595 77.984C101.97 73.3588 98.378 71.9306 92.8555 72.5181C92.4257 72.5639 87.2871 67.785 81.4358 61.8987C71.8983 52.3059 67.3647 49.1937 67.3647 52.2413ZM50.576 64.5852C50.0519 65.4326 48.512 65.7748 47.1553 65.3437C44.4499 64.4855 42.2403 66.6654 44.4391 68.0248C45.1923 68.4896 45.808 70.7625 45.808 73.0731C45.808 76.6192 43.6159 79.4459 31.7651 91.1822C24.0424 98.8307 16.6445 105.089 15.3255 105.089C14.0065 105.089 10.9279 103.152 8.48526 100.783C1.17619 93.6989 2.0654 91.3774 18.1588 75.5413C32.7486 61.1846 33.3671 60.8707 40.8728 64.0126C42.821 64.8277 43.2575 64.5071 42.9274 62.5009C42.6957 61.1011 43.0218 59.134 43.6496 58.1303C44.5523 56.6914 45.5035 57.0161 48.1617 59.6743C50.0156 61.5282 51.1015 63.7364 50.576 64.5852Z" fill="#A50700"/>
</svg>
