<svg width="106" height="110" viewBox="0 0 106 110" fill="none" xmlns="http://www.w3.org/2000/svg">
<g clip-path="url(#clip0_108_2)">
<path fill-rule="evenodd" clip-rule="evenodd" d="M72.9799 91.57C84.5599 103.27 76.1399 94.88 87.9799 106.82C89.5099 108.35 90.79 109.53 93.37 109.89C100.86 111.31 109.05 99.25 104.13 93.22L87.6299 76.56L91.6299 69.35C101.11 49.49 95.6299 25.5 79.2299 11.43C72.1523 5.43984 63.4969 1.61872 54.3018 0.424991C45.1067 -0.768738 35.7625 0.715601 27.3899 4.69998C12.3899 12.03 0.939942 27.39 0.119942 45.47C-1.88006 83.77 38.12 110.36 72.12 90.86C73.17 90.27 71.9999 91.81 73.0599 91.57H72.9799ZM48.2799 22.78C53.3923 22.7046 58.4115 24.1517 62.699 26.9371C66.9866 29.7225 70.3486 33.7204 72.3575 38.4221C74.3664 43.1238 74.9313 48.3168 73.9802 53.3405C73.0292 58.3642 70.6053 62.9914 67.0169 66.6335C63.4285 70.2756 58.8378 72.768 53.8288 73.7935C48.8198 74.819 43.619 74.3314 38.888 72.3925C34.1569 70.4537 30.1096 67.1514 27.2608 62.9057C24.412 58.66 22.8905 53.6629 22.8899 48.55C22.8526 41.7697 25.5035 35.2508 30.2623 30.4208C35.021 25.5909 41.4998 22.8434 48.2799 22.78V22.78Z" fill="black"/>
</g>
<defs>
<clipPath id="clip0_108_2">
<rect width="105.59" height="110" fill="white"/>
</clipPath>
</defs>
</svg>
